<svg width="30" height="30" viewBox="0 0 30 30" fill="none" xmlns="http://www.w3.org/2000/svg">
<g clip-path="url(#clip0_3_45088)">
<path d="M6.43495 1.66243C7.40959 0.590387 8.76059 0 10.2391 0C11.8895 0 13.3201 0.763747 14.3762 2.2086C14.4554 2.31693 14.5295 2.42526 14.5989 2.5325C14.6683 2.4252 14.7424 2.31693 14.8216 2.2086C15.8778 0.763747 17.3083 0 18.9587 0C20.4372 0 21.7883 0.590387 22.7629 1.66237C23.6877 2.67971 24.1971 4.03975 24.1971 5.49195C24.1971 7.07008 23.5714 8.52629 22.2282 10.0749C21.0561 11.426 19.3749 12.8148 17.4282 14.4229C16.7089 15.0172 15.965 15.6316 15.1745 16.3022C15.0094 16.4422 14.8042 16.5123 14.599 16.5123C14.3938 16.5123 14.1886 16.4422 14.0235 16.3022C13.2331 15.6318 12.4893 15.0173 11.77 14.4232C10.5197 13.3903 9.44004 12.4984 8.50307 11.6333C6.68397 9.95349 5.00069 8.04687 5.00069 5.49201C5.00069 4.03975 5.51005 2.67977 6.43495 1.66243ZM9.7091 10.3822C10.6106 11.2147 11.6732 12.0924 12.9035 13.1087C13.4508 13.5607 14.0121 14.0244 14.5989 14.5169C15.1859 14.0245 15.7474 13.5607 16.2947 13.1085C20.1266 9.94299 22.4397 8.0323 22.4397 5.49201C22.4398 3.34167 20.9433 1.72012 18.9588 1.72012C17.8985 1.72012 16.9968 2.2086 16.2787 3.17198C15.6894 3.96256 15.4475 4.78216 15.4458 4.78767C15.3404 5.16025 14.994 5.4182 14.599 5.4182C14.204 5.4182 13.8576 5.16025 13.7521 4.78767C13.7435 4.75699 12.8539 1.72012 10.2391 1.72012C8.25463 1.72012 6.75809 3.34172 6.75809 5.49201C6.75809 7.05007 7.58549 8.42112 9.7091 10.3822Z" fill="#FFC107"/>
<path d="M2.63939 17.3212C3.36836 17.3212 4.07154 17.6207 4.56859 18.1429L7.15122 20.8564C7.48503 19.8061 8.48745 19.0412 9.66905 19.0412H13.7284C14.2967 19.0412 14.8447 18.8388 15.2714 18.4714C17.5661 16.495 21.0153 16.4776 23.3318 18.4167C23.8095 17.7548 24.5967 17.3212 25.4859 17.3212H29.1179C29.6031 17.3212 29.9966 17.7062 29.9966 18.1812V28.5014C29.9966 28.9763 29.6032 29.3614 29.1179 29.3614H25.4859C24.6967 29.3614 23.988 29.0198 23.5045 28.4803L22.9841 28.6234C21.2041 29.1131 19.3642 29.3614 17.5153 29.3614H9.66911C7.74337 29.3614 5.90382 28.4611 4.74835 26.9533L0.529673 21.4482C0.529613 21.4481 0.529554 21.448 0.529438 21.4478C0.1852 20.9986 0.00326729 20.4638 0.00326729 19.9011C0.00326729 18.4785 1.18586 17.3212 2.63939 17.3212ZM24.6071 26.7813C24.6071 27.2555 25.0013 27.6413 25.4859 27.6413H28.2392V19.0412H25.4859C25.0014 19.0412 24.6071 19.4269 24.6071 19.9012V26.7813ZM1.93551 20.416L1.93563 20.4161L6.15425 25.9214C6.9796 26.9984 8.29356 27.6414 9.66911 27.6414H17.5151C19.2032 27.6414 20.8832 27.4147 22.5084 26.9676L22.852 26.873C22.8509 26.8425 22.8496 26.8121 22.8496 26.7813V20.2899L22.2373 19.7625C20.5826 18.3375 18.087 18.3373 16.4322 19.7625C15.6845 20.4065 14.7243 20.7611 13.7283 20.7611H9.66893C9.18442 20.7611 8.7902 21.1469 8.7902 21.6211C8.7902 22.0953 9.18436 22.4812 9.66893 22.4812H15.9141C16.3994 22.4812 16.7929 22.8662 16.7929 23.3412C16.7929 23.8162 16.3995 24.2012 15.9141 24.2012H9.08012C8.35116 24.2012 7.64809 23.9018 7.15116 23.3797L3.28263 19.3152C3.11441 19.1385 2.88596 19.0412 2.63939 19.0412C2.15488 19.0412 1.76067 19.4269 1.76067 19.9012C1.76067 20.0887 1.82113 20.2667 1.93551 20.416Z" fill="#FFC107"/>
</g>
<defs>
<clipPath id="clip0_3_45088">
<rect width="30" height="29.3617" fill="white" transform="matrix(-1 0 0 1 30 0)"/>
</clipPath>
</defs>
</svg>
