<svg width="137" height="42" viewBox="0 0 137 42" fill="none" xmlns="http://www.w3.org/2000/svg">
<g clip-path="url(#clip0_18_3238)">
<path d="M27.3549 33.1491C27.4439 33.1491 41.2635 24.2982 40.6293 17.4612C40.1387 12.1688 28.6193 9.12512 28.6193 9.12512L32.4125 6.59628C32.4125 6.59628 34.027 12.1031 40.3632 9.37902C46.6995 6.65495 44.464 0.485589 48.85 1.5386C53.7398 2.71198 47.1132 14.8858 41.044 13.0499C41.044 13.0499 48.1814 15.9206 51.3788 7.8607C51.3788 7.8607 57.9043 21.7693 33.7366 36.1574C33.2966 36.4194 32.7403 36.3891 32.3084 36.1159L27.3549 33.1491Z" fill="white"/>
<path d="M24.8261 33.1491C24.7371 33.1491 10.9175 24.2982 11.5517 17.4612C12.0423 12.1688 23.5617 9.12512 23.5617 9.12512L19.7684 6.59628C19.7684 6.59628 18.154 12.1031 11.8177 9.37902C5.48249 6.65495 7.71799 0.485589 3.33096 1.5386C-1.55881 2.71198 5.06776 14.8858 11.137 13.0499C11.137 13.0499 3.99958 15.9206 0.802115 7.8607C0.802115 7.8607 -5.72331 21.7693 18.4443 36.1574C18.8843 36.4194 19.4407 36.3891 19.8726 36.1159L24.8261 33.1491Z" fill="white"/>
<path d="M26.0905 34.4136L31.1481 38.0662L26.0905 42.0001" fill="white"/>
<path d="M37.6079 7.85964C39.7783 7.85964 41.5377 6.1002 41.5377 3.92982C41.5377 1.75944 39.7783 0 37.6079 0C35.4375 0 33.6781 1.75944 33.6781 3.92982C33.6781 6.1002 35.4375 7.85964 37.6079 7.85964Z" fill="white"/>
<path d="M14.5741 7.85964C16.7445 7.85964 18.5039 6.1002 18.5039 3.92982C18.5039 1.75944 16.7445 0 14.5741 0C12.4037 0 10.6443 1.75944 10.6443 3.92982C10.6443 6.1002 12.4037 7.85964 14.5741 7.85964Z" fill="white"/>
<path d="M26.2162 10.2407L32.5383 12.7696C32.5383 12.7696 27.9804 11.9708 26.2162 15.2629" fill="white"/>
<path d="M26.2162 10.2407L19.6621 12.7696C19.6621 12.7696 24.452 11.9708 26.2162 15.2629" fill="white"/>
<path d="M26.5478 1.85405L27.0991 3.54939C27.1021 3.56051 27.1132 3.5676 27.1244 3.5676H28.9077C29.3659 3.5676 29.5561 4.15327 29.1859 4.42234L27.7434 5.4703C27.7343 5.47738 27.7303 5.4885 27.7343 5.49963L28.2856 7.19496C28.4272 7.62992 27.9285 7.99205 27.5583 7.72299L26.1159 6.67503C26.1067 6.66795 26.0936 6.66795 26.0845 6.67503L24.642 7.72299C24.2718 7.99205 23.7731 7.62992 23.9147 7.19496L24.466 5.49963C24.4691 5.4885 24.466 5.47636 24.4569 5.4703L23.0145 4.42234C22.6443 4.15327 22.8344 3.5676 23.2927 3.5676H25.076C25.0871 3.5676 25.0972 3.56051 25.1013 3.54939L25.6526 1.85405C25.7942 1.41909 26.4102 1.41909 26.5518 1.85405H26.5478Z" fill="white"/>
<path d="M26.0905 34.4136L21.0328 38.0662L26.0905 42.0001" fill="white"/>
</g>
<path d="M132.088 39.6121C131.534 39.6121 130.98 39.5399 130.427 39.3954C129.873 39.251 129.356 39.0524 128.874 38.7997C128.405 38.547 128.008 38.2582 127.683 37.9332L129.542 36.0197C129.831 36.3085 130.174 36.5372 130.571 36.7057C130.98 36.8742 131.408 36.9584 131.853 36.9584C132.058 36.9584 132.214 36.9344 132.322 36.8862C132.443 36.826 132.503 36.7478 132.503 36.6515C132.503 36.4831 132.401 36.3567 132.196 36.2724C132.003 36.1882 131.751 36.11 131.438 36.0378C131.137 35.9656 130.812 35.8753 130.463 35.767C130.126 35.6466 129.801 35.4902 129.488 35.2976C129.175 35.0931 128.923 34.8163 128.73 34.4672C128.537 34.1062 128.441 33.6489 128.441 33.0953C128.441 32.5297 128.598 32.0302 128.911 31.597C129.235 31.1517 129.687 30.8027 130.264 30.55C130.854 30.2852 131.534 30.1528 132.304 30.1528C133.087 30.1528 133.845 30.2852 134.579 30.55C135.313 30.8147 135.897 31.2119 136.33 31.7414L134.452 33.6549C134.152 33.3179 133.821 33.0953 133.46 32.987C133.099 32.8666 132.798 32.8065 132.557 32.8065C132.328 32.8065 132.166 32.8426 132.07 32.9148C131.985 32.975 131.943 33.0532 131.943 33.1495C131.943 33.2818 132.04 33.3901 132.232 33.4744C132.425 33.5586 132.671 33.6369 132.972 33.7091C133.285 33.7813 133.61 33.8776 133.947 33.9979C134.284 34.1182 134.603 34.2867 134.904 34.5034C135.217 34.72 135.469 35.0088 135.662 35.3698C135.855 35.7189 135.951 36.1762 135.951 36.7418C135.951 37.6203 135.602 38.3183 134.904 38.8358C134.206 39.3533 133.267 39.6121 132.088 39.6121Z" fill="white"/>
<path d="M122.865 39.558C121.89 39.558 121.018 39.3594 120.248 38.9623C119.489 38.5531 118.888 37.9935 118.442 37.2834C118.009 36.5734 117.792 35.7731 117.792 34.8825C117.792 33.992 118.009 33.1977 118.442 32.4997C118.876 31.8016 119.471 31.2541 120.229 30.8569C121 30.4478 121.872 30.2432 122.847 30.2432C123.822 30.2432 124.688 30.4478 125.447 30.8569C126.205 31.2541 126.8 31.8016 127.234 32.4997C127.679 33.1977 127.902 33.992 127.902 34.8825C127.902 35.7731 127.685 36.5734 127.252 37.2834C126.818 37.9935 126.223 38.5531 125.465 38.9623C124.706 39.3594 123.84 39.558 122.865 39.558ZM122.847 36.453C123.148 36.453 123.407 36.3929 123.623 36.2725C123.852 36.1401 124.026 35.9596 124.147 35.731C124.267 35.4903 124.327 35.2135 124.327 34.9006C124.327 34.5877 124.261 34.3169 124.129 34.0882C124.008 33.8475 123.84 33.667 123.623 33.5467C123.407 33.4143 123.148 33.3481 122.847 33.3481C122.558 33.3481 122.299 33.4143 122.071 33.5467C121.854 33.6791 121.68 33.8656 121.547 34.1063C121.427 34.3349 121.367 34.6057 121.367 34.9186C121.367 35.2195 121.427 35.4903 121.547 35.731C121.68 35.9596 121.854 36.1401 122.071 36.2725C122.299 36.3929 122.558 36.453 122.847 36.453Z" fill="white"/>
<path d="M102.868 39.3414V30.4598H106.406V39.3414H102.868ZM108.337 39.3414V34.2507C108.337 33.9499 108.247 33.7152 108.067 33.5467C107.886 33.3662 107.657 33.2759 107.381 33.2759C107.188 33.2759 107.014 33.318 106.857 33.4023C106.713 33.4745 106.598 33.5828 106.514 33.7272C106.442 33.8716 106.406 34.0461 106.406 34.2507L105.034 33.7453C105.034 33.0232 105.19 32.4034 105.503 31.8859C105.828 31.3684 106.261 30.9713 106.803 30.6945C107.345 30.4177 107.958 30.2793 108.644 30.2793C109.246 30.2793 109.788 30.4237 110.269 30.7125C110.762 31.0014 111.154 31.4045 111.442 31.922C111.731 32.4275 111.876 33.0292 111.876 33.7272V39.3414H108.337ZM113.807 39.3414V34.2507C113.807 33.9499 113.717 33.7152 113.536 33.5467C113.356 33.3662 113.127 33.2759 112.85 33.2759C112.658 33.2759 112.483 33.318 112.327 33.4023C112.182 33.4745 112.068 33.5828 111.984 33.7272C111.912 33.8716 111.876 34.0461 111.876 34.2507L109.8 34.2688C109.8 33.4384 109.962 32.7283 110.287 32.1387C110.624 31.5369 111.087 31.0796 111.677 30.7667C112.267 30.4418 112.941 30.2793 113.699 30.2793C114.409 30.2793 115.035 30.4297 115.576 30.7306C116.13 31.0315 116.563 31.4647 116.876 32.0303C117.189 32.596 117.345 33.2759 117.345 34.0702V39.3414H113.807Z" fill="white"/>
<path d="M96.0016 39.5219C95.1712 39.5219 94.4371 39.3233 93.7993 38.9262C93.1614 38.529 92.662 37.9875 92.301 37.3015C91.9399 36.6035 91.7594 35.8032 91.7594 34.9006C91.7594 33.998 91.9399 33.1977 92.301 32.4997C92.662 31.8017 93.1614 31.2601 93.7993 30.875C94.4371 30.4779 95.1712 30.2793 96.0016 30.2793C96.5191 30.2793 96.9945 30.3696 97.4277 30.5501C97.873 30.7186 98.2401 30.9593 98.5289 31.2722C98.8298 31.5851 99.0223 31.9461 99.1065 32.3553V37.4459C99.0223 37.8551 98.8298 38.2161 98.5289 38.529C98.2401 38.8419 97.873 39.0887 97.4277 39.2692C96.9945 39.4377 96.5191 39.5219 96.0016 39.5219ZM96.7959 36.417C97.2412 36.417 97.5962 36.2786 97.861 36.0018C98.1378 35.7129 98.2762 35.3459 98.2762 34.9006C98.2762 34.5997 98.216 34.341 98.0956 34.1244C97.9753 33.8957 97.8008 33.7152 97.5721 33.5828C97.3555 33.4504 97.1028 33.3842 96.814 33.3842C96.5251 33.3842 96.2664 33.4504 96.0377 33.5828C95.8211 33.7152 95.6466 33.8957 95.5142 34.1244C95.3818 34.353 95.3156 34.6118 95.3156 34.9006C95.3156 35.1894 95.3758 35.4482 95.4962 35.6768C95.6285 35.9055 95.8091 36.086 96.0377 36.2184C96.2664 36.3508 96.5191 36.417 96.7959 36.417ZM98.1678 39.3414V36.9585L98.6553 34.7923L98.1678 32.6441V30.4598H101.616V39.3414H98.1678Z" fill="white"/>
<path d="M76.7805 39.3414V30.4598H80.3187V39.3414H76.7805ZM82.2503 39.3414V34.2507C82.2503 33.9499 82.16 33.7152 81.9795 33.5467C81.799 33.3662 81.5703 33.2759 81.2935 33.2759C81.101 33.2759 80.9265 33.318 80.77 33.4023C80.6256 33.4745 80.5113 33.5828 80.427 33.7272C80.3548 33.8716 80.3187 34.0461 80.3187 34.2507L78.9468 33.7453C78.9468 33.0232 79.1032 32.4034 79.4161 31.8859C79.741 31.3684 80.1743 30.9713 80.7158 30.6945C81.2574 30.4177 81.8712 30.2793 82.5571 30.2793C83.1589 30.2793 83.7004 30.4237 84.1818 30.7125C84.6752 31.0014 85.0664 31.4045 85.3552 31.922C85.644 32.4275 85.7884 33.0292 85.7884 33.7272V39.3414H82.2503ZM87.72 39.3414V34.2507C87.72 33.9499 87.6297 33.7152 87.4492 33.5467C87.2687 33.3662 87.04 33.2759 86.7633 33.2759C86.5707 33.2759 86.3962 33.318 86.2397 33.4023C86.0953 33.4745 85.981 33.5828 85.8968 33.7272C85.8246 33.8716 85.7884 34.0461 85.7884 34.2507L83.7125 34.2688C83.7125 33.4384 83.8749 32.7283 84.1999 32.1387C84.5368 31.5369 85.0002 31.0796 85.5899 30.7667C86.1796 30.4418 86.8535 30.2793 87.6117 30.2793C88.3217 30.2793 88.9475 30.4297 89.4891 30.7306C90.0427 31.0315 90.4759 31.4647 90.7888 32.0303C91.1017 32.596 91.2582 33.2759 91.2582 34.0702V39.3414H87.72Z" fill="white"/>
<path d="M71.337 39.5581C70.4705 39.5581 69.7003 39.3897 69.0264 39.0527C68.3645 38.7157 67.8409 38.2464 67.4558 37.6446C67.0707 37.0429 66.8782 36.3569 66.8782 35.5867V30.46H70.4164V35.6228C70.4164 35.8033 70.4525 35.9658 70.5247 36.1102C70.6089 36.2546 70.7172 36.369 70.8496 36.4532C70.994 36.5254 71.1565 36.5615 71.337 36.5615C71.5897 36.5615 71.8003 36.4773 71.9688 36.3088C72.1493 36.1283 72.2396 35.8996 72.2396 35.6228V30.46H75.7778V35.5867C75.7778 36.369 75.5852 37.061 75.2001 37.6627C74.8271 38.2524 74.3035 38.7157 73.6296 39.0527C72.9677 39.3897 72.2035 39.5581 71.337 39.5581Z" fill="white"/>
<path d="M60.9323 39.5582C59.8372 39.5582 58.8804 39.4018 58.0621 39.0889C57.2557 38.7639 56.5096 38.2525 55.8236 37.5544L58.0801 35.298C58.5495 35.7432 59.0429 36.0862 59.5604 36.3269C60.0779 36.5556 60.6314 36.6699 61.2211 36.6699C61.7146 36.6699 62.0876 36.5977 62.3404 36.4533C62.5931 36.2968 62.7195 36.0862 62.7195 35.8215C62.7195 35.5567 62.6111 35.3401 62.3945 35.1716C62.1779 34.9911 61.8891 34.8346 61.528 34.7022C61.179 34.5578 60.7879 34.4134 60.3547 34.269C59.9334 34.1246 59.5122 33.9501 59.091 33.7455C58.6698 33.5409 58.2787 33.2942 57.9176 33.0054C57.5686 32.7045 57.2858 32.3374 57.0692 31.9042C56.8526 31.4589 56.7443 30.9173 56.7443 30.2795C56.7443 29.4491 56.9428 28.7331 57.34 28.1313C57.7371 27.5296 58.2967 27.0723 59.0188 26.7594C59.7409 26.4344 60.5893 26.272 61.5641 26.272C62.5269 26.272 63.4175 26.4284 64.2358 26.7413C65.0662 27.0422 65.7522 27.4754 66.2937 28.0411L64.0192 30.2976C63.6221 29.9125 63.2249 29.6296 62.8278 29.4491C62.4306 29.2566 61.9974 29.1603 61.528 29.1603C61.155 29.1603 60.8541 29.2205 60.6254 29.3408C60.4088 29.4612 60.3005 29.6417 60.3005 29.8824C60.3005 30.1351 60.4088 30.3457 60.6254 30.5142C60.8421 30.6706 61.1249 30.8151 61.4739 30.9474C61.8349 31.0798 62.226 31.2182 62.6472 31.3626C63.0805 31.507 63.5077 31.6815 63.9289 31.8861C64.3502 32.0787 64.7353 32.3314 65.0843 32.6443C65.4453 32.9452 65.7341 33.3243 65.9508 33.7816C66.1674 34.2389 66.2757 34.7925 66.2757 35.4424C66.2757 36.7541 65.8063 37.7711 64.8676 38.4932C63.941 39.2032 62.6292 39.5582 60.9323 39.5582Z" fill="white"/>
<path d="M129.806 24.3628C128.904 24.3628 128.002 24.2451 127.1 24.0098C126.197 23.7744 125.354 23.4508 124.57 23.039C123.805 22.6271 123.158 22.1564 122.628 21.6269L125.658 18.5086C126.129 18.9793 126.688 19.3519 127.335 19.6265C128.002 19.9011 128.698 20.0383 129.424 20.0383C129.757 20.0383 130.012 19.9991 130.188 19.9207C130.385 19.8226 130.483 19.6951 130.483 19.5382C130.483 19.2637 130.316 19.0577 129.983 18.9205C129.669 18.7832 129.257 18.6557 128.747 18.538C128.257 18.4204 127.727 18.2733 127.158 18.0968C126.609 17.9006 126.08 17.6457 125.57 17.3319C125.06 16.9985 124.648 16.5474 124.334 15.9787C124.021 15.3903 123.864 14.645 123.864 13.7429C123.864 12.8211 124.119 12.0072 124.628 11.3012C125.158 10.5755 125.893 10.0068 126.835 9.59495C127.796 9.16349 128.904 8.94775 130.159 8.94775C131.434 8.94775 132.669 9.16349 133.866 9.59495C135.062 10.0264 136.013 10.6736 136.719 11.5365L133.66 14.6548C133.17 14.1057 132.63 13.7429 132.042 13.5664C131.453 13.3703 130.963 13.2722 130.571 13.2722C130.198 13.2722 129.934 13.331 129.777 13.4487C129.639 13.5468 129.571 13.6742 129.571 13.8311C129.571 14.0469 129.728 14.2234 130.041 14.3607C130.355 14.498 130.757 14.6254 131.248 14.7431C131.757 14.8608 132.287 15.0177 132.836 15.2138C133.385 15.4099 133.905 15.6845 134.395 16.0375C134.905 16.3905 135.317 16.8612 135.631 17.4496C135.945 18.0183 136.102 18.7636 136.102 19.6853C136.102 21.117 135.533 22.2545 134.395 23.0978C133.258 23.9411 131.728 24.3628 129.806 24.3628Z" fill="white"/>
<path d="M114.493 24.2749C112.904 24.2749 111.482 23.9513 110.227 23.3041C108.991 22.6373 108.011 21.7253 107.285 20.5682C106.579 19.4111 106.226 18.1069 106.226 16.6556C106.226 15.2044 106.579 13.91 107.285 12.7725C107.991 11.635 108.962 10.7426 110.198 10.0954C111.453 9.42862 112.875 9.09521 114.463 9.09521C116.052 9.09521 117.464 9.42862 118.699 10.0954C119.935 10.7426 120.906 11.635 121.612 12.7725C122.337 13.91 122.7 15.2044 122.7 16.6556C122.7 18.1069 122.347 19.4111 121.641 20.5682C120.935 21.7253 119.964 22.6373 118.729 23.3041C117.493 23.9513 116.081 24.2749 114.493 24.2749ZM114.463 19.215C114.953 19.215 115.375 19.1169 115.728 18.9208C116.101 18.7051 116.385 18.4109 116.581 18.0383C116.777 17.646 116.875 17.195 116.875 16.6851C116.875 16.1751 116.768 15.7339 116.552 15.3613C116.356 14.969 116.081 14.6748 115.728 14.4787C115.375 14.263 114.953 14.1551 114.463 14.1551C113.992 14.1551 113.571 14.263 113.198 14.4787C112.845 14.6944 112.561 14.9984 112.345 15.3907C112.149 15.7633 112.051 16.2046 112.051 16.7145C112.051 17.2048 112.149 17.646 112.345 18.0383C112.561 18.4109 112.845 18.7051 113.198 18.9208C113.571 19.1169 113.992 19.215 114.463 19.215Z" fill="white"/>
<path d="M95.9589 24.2159C94.5272 24.2159 93.272 23.8923 92.1934 23.2451C91.1343 22.5979 90.3008 21.7153 89.6928 20.5974C89.1045 19.4599 88.8103 18.1557 88.8103 16.6848C88.8103 15.2139 89.1045 13.9097 89.6928 12.7723C90.3008 11.6348 91.1343 10.7522 92.1934 10.1246C93.272 9.47744 94.5272 9.15384 95.9589 9.15384C96.8218 9.15384 97.6357 9.30093 98.4006 9.59511C99.1654 9.86968 99.8126 10.2619 100.342 10.7718C100.891 11.2817 101.235 11.8701 101.372 12.5369V20.5386C101.235 21.2054 100.891 21.8232 100.342 22.3919C99.8126 22.9411 99.1654 23.3823 98.4006 23.7158C97.6357 24.0492 96.8218 24.2159 95.9589 24.2159ZM97.0179 19.156C97.5082 19.156 97.9299 19.0579 98.2829 18.8618C98.6359 18.646 98.9105 18.3519 99.1066 17.9792C99.3223 17.6066 99.4302 17.1751 99.4302 16.6848C99.4302 16.1945 99.3321 15.7729 99.136 15.4199C98.9399 15.0472 98.6555 14.7531 98.2829 14.5373C97.9299 14.3216 97.518 14.2137 97.0473 14.2137C96.5767 14.2137 96.155 14.3216 95.7824 14.5373C95.4294 14.7531 95.145 15.0472 94.9292 15.4199C94.7135 15.7925 94.6056 16.2142 94.6056 16.6848C94.6056 17.1555 94.7037 17.5772 94.8998 17.9498C95.1156 18.3224 95.4097 18.6166 95.7824 18.8324C96.155 19.0481 96.5668 19.156 97.0179 19.156ZM104.873 23.9217H99.2537V20.0385L100.048 16.5083L99.1066 13.0076V2.3877H104.873V23.9217Z" fill="white"/>
<path d="M80.1452 24.2749C78.5567 24.2749 77.1348 23.9513 75.8796 23.3041C74.6441 22.6373 73.6635 21.7253 72.9378 20.5682C72.2318 19.4111 71.8788 18.1069 71.8788 16.6556C71.8788 15.2044 72.2318 13.91 72.9378 12.7725C73.6439 11.635 74.6147 10.7426 75.8502 10.0954C77.1054 9.42862 78.5273 9.09521 80.1158 9.09521C81.7044 9.09521 83.1165 9.42862 84.352 10.0954C85.5876 10.7426 86.5584 11.635 87.2644 12.7725C87.99 13.91 88.3529 15.2044 88.3529 16.6556C88.3529 18.1069 87.9999 19.4111 87.2938 20.5682C86.5878 21.7253 85.617 22.6373 84.3814 23.3041C83.1459 23.9513 81.7338 24.2749 80.1452 24.2749ZM80.1158 19.215C80.6061 19.215 81.0278 19.1169 81.3808 18.9208C81.7534 18.7051 82.0378 18.4109 82.2339 18.0383C82.43 17.646 82.5281 17.195 82.5281 16.6851C82.5281 16.1751 82.4202 15.7339 82.2045 15.3613C82.0084 14.969 81.7338 14.6748 81.3808 14.4787C81.0278 14.263 80.6061 14.1551 80.1158 14.1551C79.6451 14.1551 79.2235 14.263 78.8509 14.4787C78.4978 14.6944 78.2135 14.9984 77.9977 15.3907C77.8016 15.7633 77.7035 16.2046 77.7035 16.7145C77.7035 17.2048 77.8016 17.646 77.9977 18.0383C78.2135 18.4109 78.4978 18.7051 78.8509 18.9208C79.2235 19.1169 79.6451 19.215 80.1158 19.215Z" fill="white"/>
<path d="M62.4521 23.9217V2.97607H68.3357V23.9217H62.4521ZM56.186 7.97713V2.97607H74.6311V7.97713H56.186Z" fill="white"/>
<defs>
<clipPath id="clip0_18_3238">
<rect width="52.1821" height="42" fill="white"/>
</clipPath>
</defs>
</svg>
