<svg width="137" height="42" viewBox="0 0 137 42" fill="none" xmlns="http://www.w3.org/2000/svg">
<g clip-path="url(#clip0_107_72)">
<path d="M27.3549 33.1491C27.4439 33.1491 41.2635 24.2981 40.6293 17.4611C40.1387 12.1688 28.6193 9.12508 28.6193 9.12508L32.4125 6.59623C32.4125 6.59623 34.027 12.103 40.3632 9.37897C46.6995 6.6549 44.464 0.485543 48.85 1.53855C53.7398 2.71193 47.1132 14.8858 41.044 13.0498C41.044 13.0498 48.1814 15.9206 51.3788 7.86065C51.3788 7.86065 57.9043 21.7693 33.7366 36.1574C33.2966 36.4194 32.7403 36.389 32.3084 36.1159L27.3549 33.1491Z" fill="url(#paint0_linear_107_72)"/>
<path d="M24.8261 33.1491C24.7371 33.1491 10.9175 24.2981 11.5517 17.4611C12.0423 12.1688 23.5617 9.12508 23.5617 9.12508L19.7684 6.59623C19.7684 6.59623 18.154 12.103 11.8177 9.37897C5.48249 6.6549 7.71799 0.485543 3.33096 1.53855C-1.55881 2.71193 5.06776 14.8858 11.137 13.0498C11.137 13.0498 3.99958 15.9206 0.802115 7.86065C0.802115 7.86065 -5.72331 21.7693 18.4443 36.1574C18.8843 36.4194 19.4407 36.389 19.8726 36.1159L24.8261 33.1491Z" fill="url(#paint1_linear_107_72)"/>
<path d="M26.0905 34.4135L31.1481 38.0661L26.0905 42" fill="url(#paint2_linear_107_72)"/>
<path d="M37.6079 7.85964C39.7783 7.85964 41.5377 6.1002 41.5377 3.92982C41.5377 1.75944 39.7783 0 37.6079 0C35.4375 0 33.6781 1.75944 33.6781 3.92982C33.6781 6.1002 35.4375 7.85964 37.6079 7.85964Z" fill="url(#paint3_linear_107_72)"/>
<path d="M14.5741 7.85964C16.7445 7.85964 18.5039 6.1002 18.5039 3.92982C18.5039 1.75944 16.7445 0 14.5741 0C12.4037 0 10.6443 1.75944 10.6443 3.92982C10.6443 6.1002 12.4037 7.85964 14.5741 7.85964Z" fill="url(#paint4_linear_107_72)"/>
<path d="M26.2162 10.2407L32.5383 12.7695C32.5383 12.7695 27.9804 11.9708 26.2162 15.2629" fill="#E3494B"/>
<path d="M26.2162 10.2407L19.6621 12.7695C19.6621 12.7695 24.452 11.9708 26.2162 15.2629" fill="#E3494B"/>
<path d="M26.5478 1.85414L27.0991 3.54948C27.1021 3.56061 27.1132 3.56769 27.1244 3.56769H28.9077C29.3659 3.56769 29.5561 4.15337 29.1859 4.42244L27.7434 5.47039C27.7343 5.47747 27.7303 5.48859 27.7343 5.49972L28.2856 7.19506C28.4272 7.63002 27.9285 7.99215 27.5583 7.72308L26.1159 6.67513C26.1067 6.66805 26.0936 6.66805 26.0845 6.67513L24.642 7.72308C24.2718 7.99215 23.7731 7.63002 23.9147 7.19506L24.466 5.49972C24.4691 5.48859 24.466 5.47646 24.4569 5.47039L23.0145 4.42244C22.6443 4.15337 22.8344 3.56769 23.2927 3.56769H25.076C25.0871 3.56769 25.0972 3.56061 25.1013 3.54948L25.6526 1.85414C25.7942 1.41918 26.4102 1.41918 26.5518 1.85414H26.5478Z" fill="#0F8740"/>
<path d="M26.0905 34.4135L21.0328 38.0661L26.0905 42" fill="url(#paint5_linear_107_72)"/>
</g>
<path d="M132.088 39.6122C131.534 39.6122 130.98 39.54 130.427 39.3956C129.873 39.2512 129.356 39.0526 128.874 38.7999C128.405 38.5472 128.008 38.2583 127.683 37.9334L129.542 36.0199C129.831 36.3087 130.174 36.5374 130.571 36.7059C130.98 36.8744 131.408 36.9586 131.853 36.9586C132.058 36.9586 132.214 36.9345 132.322 36.8864C132.443 36.8262 132.503 36.748 132.503 36.6517C132.503 36.4832 132.401 36.3569 132.196 36.2726C132.003 36.1884 131.751 36.1102 131.438 36.038C131.137 35.9657 130.812 35.8755 130.463 35.7672C130.126 35.6468 129.801 35.4904 129.488 35.2978C129.175 35.0932 128.923 34.8164 128.73 34.4674C128.537 34.1064 128.441 33.6491 128.441 33.0955C128.441 32.5299 128.598 32.0304 128.911 31.5972C129.235 31.1519 129.687 30.8029 130.264 30.5502C130.854 30.2854 131.534 30.153 132.304 30.153C133.087 30.153 133.845 30.2854 134.579 30.5502C135.313 30.8149 135.897 31.2121 136.33 31.7416L134.452 33.6551C134.152 33.3181 133.821 33.0955 133.46 32.9872C133.099 32.8668 132.798 32.8067 132.557 32.8067C132.328 32.8067 132.166 32.8428 132.07 32.915C131.985 32.9751 131.943 33.0534 131.943 33.1496C131.943 33.282 132.04 33.3903 132.232 33.4746C132.425 33.5588 132.671 33.637 132.972 33.7093C133.285 33.7815 133.61 33.8777 133.947 33.9981C134.284 34.1184 134.603 34.2869 134.904 34.5035C135.217 34.7202 135.469 35.009 135.662 35.37C135.855 35.719 135.951 36.1764 135.951 36.742C135.951 37.6205 135.602 38.3185 134.904 38.836C134.206 39.3535 133.267 39.6122 132.088 39.6122Z" fill="#29AF78"/>
<path d="M122.865 39.5581C121.89 39.5581 121.018 39.3595 120.248 38.9624C119.489 38.5532 118.888 37.9936 118.442 37.2835C118.009 36.5735 117.792 35.7732 117.792 34.8826C117.792 33.9921 118.009 33.1978 118.442 32.4998C118.876 31.8018 119.471 31.2542 120.229 30.857C121 30.4479 121.872 30.2433 122.847 30.2433C123.822 30.2433 124.688 30.4479 125.447 30.857C126.205 31.2542 126.8 31.8018 127.234 32.4998C127.679 33.1978 127.902 33.9921 127.902 34.8826C127.902 35.7732 127.685 36.5735 127.252 37.2835C126.818 37.9936 126.223 38.5532 125.465 38.9624C124.706 39.3595 123.84 39.5581 122.865 39.5581ZM122.847 36.4531C123.148 36.4531 123.407 36.393 123.623 36.2726C123.852 36.1402 124.026 35.9597 124.147 35.7311C124.267 35.4904 124.327 35.2136 124.327 34.9007C124.327 34.5878 124.261 34.317 124.129 34.0883C124.008 33.8476 123.84 33.6671 123.623 33.5468C123.407 33.4144 123.148 33.3482 122.847 33.3482C122.558 33.3482 122.299 33.4144 122.071 33.5468C121.854 33.6792 121.68 33.8657 121.547 34.1064C121.427 34.335 121.367 34.6058 121.367 34.9187C121.367 35.2196 121.427 35.4904 121.547 35.7311C121.68 35.9597 121.854 36.1402 122.071 36.2726C122.299 36.393 122.558 36.4531 122.847 36.4531Z" fill="#29AF78"/>
<path d="M102.868 39.3415V30.4599H106.406V39.3415H102.868ZM108.337 39.3415V34.2508C108.337 33.9499 108.247 33.7153 108.067 33.5468C107.886 33.3663 107.657 33.276 107.381 33.276C107.188 33.276 107.014 33.3181 106.857 33.4024C106.713 33.4746 106.598 33.5829 106.514 33.7273C106.442 33.8717 106.406 34.0462 106.406 34.2508L105.034 33.7454C105.034 33.0233 105.19 32.4035 105.503 31.886C105.828 31.3685 106.261 30.9714 106.803 30.6946C107.345 30.4178 107.958 30.2794 108.644 30.2794C109.246 30.2794 109.788 30.4238 110.269 30.7126C110.762 31.0015 111.154 31.4046 111.442 31.9221C111.731 32.4276 111.876 33.0293 111.876 33.7273V39.3415H108.337ZM113.807 39.3415V34.2508C113.807 33.9499 113.717 33.7153 113.536 33.5468C113.356 33.3663 113.127 33.276 112.85 33.276C112.658 33.276 112.483 33.3181 112.327 33.4024C112.182 33.4746 112.068 33.5829 111.984 33.7273C111.912 33.8717 111.876 34.0462 111.876 34.2508L109.8 34.2689C109.8 33.4385 109.962 32.7284 110.287 32.1387C110.624 31.537 111.087 31.0797 111.677 30.7668C112.267 30.4418 112.941 30.2794 113.699 30.2794C114.409 30.2794 115.035 30.4298 115.576 30.7307C116.13 31.0315 116.563 31.4648 116.876 32.0304C117.189 32.596 117.345 33.276 117.345 34.0703V39.3415H113.807Z" fill="#29AF78"/>
<path d="M96.0016 39.522C95.1712 39.522 94.4371 39.3234 93.7993 38.9263C93.1614 38.5291 92.662 37.9876 92.301 37.3016C91.9399 36.6036 91.7594 35.8033 91.7594 34.9007C91.7594 33.9981 91.9399 33.1978 92.301 32.4998C92.662 31.8018 93.1614 31.2602 93.7993 30.8751C94.4371 30.4779 95.1712 30.2794 96.0016 30.2794C96.5191 30.2794 96.9945 30.3696 97.4277 30.5502C97.873 30.7186 98.2401 30.9593 98.5289 31.2722C98.8298 31.5851 99.0223 31.9462 99.1065 32.3553V37.446C99.0223 37.8552 98.8298 38.2162 98.5289 38.5291C98.2401 38.842 97.873 39.0887 97.4277 39.2692C96.9945 39.4377 96.5191 39.522 96.0016 39.522ZM96.7959 36.417C97.2412 36.417 97.5962 36.2786 97.861 36.0018C98.1378 35.713 98.2762 35.346 98.2762 34.9007C98.2762 34.5998 98.216 34.3411 98.0956 34.1244C97.9753 33.8958 97.8008 33.7153 97.5721 33.5829C97.3555 33.4505 97.1028 33.3843 96.814 33.3843C96.5251 33.3843 96.2664 33.4505 96.0377 33.5829C95.8211 33.7153 95.6466 33.8958 95.5142 34.1244C95.3818 34.3531 95.3156 34.6118 95.3156 34.9007C95.3156 35.1895 95.3758 35.4483 95.4962 35.6769C95.6285 35.9056 95.8091 36.0861 96.0377 36.2185C96.2664 36.3508 96.5191 36.417 96.7959 36.417ZM98.1678 39.3415V36.9586L98.6553 34.7924L98.1678 32.6442V30.4599H101.616V39.3415H98.1678Z" fill="#29AF78"/>
<path d="M76.7805 39.3415V30.4599H80.3187V39.3415H76.7805ZM82.2503 39.3415V34.2508C82.2503 33.9499 82.16 33.7153 81.9795 33.5468C81.799 33.3663 81.5703 33.276 81.2935 33.276C81.101 33.276 80.9265 33.3181 80.77 33.4024C80.6256 33.4746 80.5113 33.5829 80.427 33.7273C80.3548 33.8717 80.3187 34.0462 80.3187 34.2508L78.9468 33.7454C78.9468 33.0233 79.1032 32.4035 79.4161 31.886C79.741 31.3685 80.1743 30.9714 80.7158 30.6946C81.2574 30.4178 81.8712 30.2794 82.5571 30.2794C83.1589 30.2794 83.7004 30.4238 84.1818 30.7126C84.6752 31.0015 85.0664 31.4046 85.3552 31.9221C85.644 32.4276 85.7884 33.0293 85.7884 33.7273V39.3415H82.2503ZM87.72 39.3415V34.2508C87.72 33.9499 87.6297 33.7153 87.4492 33.5468C87.2687 33.3663 87.04 33.276 86.7633 33.276C86.5707 33.276 86.3962 33.3181 86.2397 33.4024C86.0953 33.4746 85.981 33.5829 85.8968 33.7273C85.8246 33.8717 85.7884 34.0462 85.7884 34.2508L83.7125 34.2689C83.7125 33.4385 83.8749 32.7284 84.1999 32.1387C84.5368 31.537 85.0002 31.0797 85.5899 30.7668C86.1796 30.4418 86.8535 30.2794 87.6117 30.2794C88.3217 30.2794 88.9475 30.4298 89.4891 30.7307C90.0427 31.0315 90.4759 31.4648 90.7888 32.0304C91.1017 32.596 91.2582 33.276 91.2582 34.0703V39.3415H87.72Z" fill="#29AF78"/>
<path d="M71.337 39.5581C70.4705 39.5581 69.7003 39.3896 69.0264 39.0526C68.3645 38.7157 67.8409 38.2463 67.4558 37.6446C67.0707 37.0429 66.8782 36.3569 66.8782 35.5867V30.4599H70.4164V35.6228C70.4164 35.8033 70.4525 35.9657 70.5247 36.1102C70.6089 36.2546 70.7172 36.3689 70.8496 36.4532C70.994 36.5254 71.1565 36.5615 71.337 36.5615C71.5897 36.5615 71.8003 36.4772 71.9688 36.3087C72.1493 36.1282 72.2396 35.8996 72.2396 35.6228V30.4599H75.7778V35.5867C75.7778 36.3689 75.5852 37.0609 75.2001 37.6626C74.8271 38.2523 74.3035 38.7157 73.6296 39.0526C72.9677 39.3896 72.2035 39.5581 71.337 39.5581Z" fill="#29AF78"/>
<path d="M60.9323 39.5581C59.8372 39.5581 58.8804 39.4016 58.0621 39.0887C57.2557 38.7638 56.5096 38.2523 55.8236 37.5543L58.0801 35.2978C58.5495 35.7431 59.0429 36.0861 59.5604 36.3268C60.0779 36.5554 60.6314 36.6698 61.2211 36.6698C61.7146 36.6698 62.0876 36.5976 62.3404 36.4532C62.5931 36.2967 62.7195 36.0861 62.7195 35.8213C62.7195 35.5566 62.6111 35.34 62.3945 35.1715C62.1779 34.9909 61.8891 34.8345 61.528 34.7021C61.179 34.5577 60.7879 34.4133 60.3547 34.2689C59.9334 34.1245 59.5122 33.95 59.091 33.7454C58.6698 33.5408 58.2787 33.2941 57.9176 33.0052C57.5686 32.7044 57.2858 32.3373 57.0692 31.9041C56.8526 31.4588 56.7443 30.9172 56.7443 30.2794C56.7443 29.449 56.9428 28.7329 57.34 28.1312C57.7371 27.5295 58.2967 27.0722 59.0188 26.7593C59.7409 26.4343 60.5893 26.2719 61.5641 26.2719C62.5269 26.2719 63.4175 26.4283 64.2358 26.7412C65.0662 27.0421 65.7522 27.4753 66.2937 28.0409L64.0192 30.2974C63.6221 29.9123 63.2249 29.6295 62.8278 29.449C62.4306 29.2564 61.9974 29.1602 61.528 29.1602C61.155 29.1602 60.8541 29.2203 60.6254 29.3407C60.4088 29.461 60.3005 29.6416 60.3005 29.8822C60.3005 30.135 60.4088 30.3456 60.6254 30.5141C60.8421 30.6705 61.1249 30.8149 61.4739 30.9473C61.8349 31.0797 62.226 31.2181 62.6472 31.3625C63.0805 31.5069 63.5077 31.6814 63.9289 31.886C64.3502 32.0786 64.7353 32.3313 65.0843 32.6442C65.4453 32.9451 65.7341 33.3242 65.9508 33.7815C66.1674 34.2388 66.2757 34.7924 66.2757 35.4422C66.2757 36.754 65.8063 37.771 64.8676 38.493C63.941 39.2031 62.6292 39.5581 60.9323 39.5581Z" fill="#29AF78"/>
<path d="M129.806 24.363C128.904 24.363 128.002 24.2453 127.1 24.01C126.197 23.7747 125.354 23.4511 124.57 23.0392C123.805 22.6274 123.158 22.1567 122.628 21.6271L125.658 18.5088C126.129 18.9795 126.688 19.3522 127.335 19.6267C128.002 19.9013 128.698 20.0386 129.424 20.0386C129.757 20.0386 130.012 19.9993 130.188 19.9209C130.385 19.8228 130.483 19.6954 130.483 19.5385C130.483 19.2639 130.316 19.058 129.983 18.9207C129.669 18.7834 129.257 18.6559 128.747 18.5383C128.257 18.4206 127.727 18.2735 127.158 18.097C126.609 17.9009 126.08 17.6459 125.57 17.3321C125.06 16.9987 124.648 16.5476 124.334 15.9789C124.021 15.3905 123.864 14.6453 123.864 13.7431C123.864 12.8214 124.119 12.0075 124.628 11.3014C125.158 10.5758 125.893 10.007 126.835 9.59518C127.796 9.16371 128.904 8.94798 130.159 8.94798C131.434 8.94798 132.669 9.16371 133.866 9.59518C135.062 10.0266 136.013 10.6738 136.719 11.5368L133.66 14.6551C133.17 14.1059 132.63 13.7431 132.042 13.5666C131.453 13.3705 130.963 13.2724 130.571 13.2724C130.198 13.2724 129.934 13.3313 129.777 13.4489C129.639 13.547 129.571 13.6745 129.571 13.8314C129.571 14.0471 129.728 14.2236 130.041 14.3609C130.355 14.4982 130.757 14.6257 131.248 14.7433C131.757 14.861 132.287 15.0179 132.836 15.214C133.385 15.4101 133.905 15.6847 134.395 16.0377C134.905 16.3907 135.317 16.8614 135.631 17.4498C135.945 18.0185 136.102 18.7638 136.102 19.6856C136.102 21.1172 135.533 22.2547 134.395 23.098C133.258 23.9414 131.728 24.363 129.806 24.363Z" fill="#29AF78"/>
<path d="M114.493 24.2748C112.904 24.2748 111.482 23.9512 110.227 23.304C108.991 22.6372 108.011 21.7252 107.285 20.5681C106.579 19.411 106.226 18.1068 106.226 16.6555C106.226 15.2042 106.579 13.9098 107.285 12.7723C107.991 11.6348 108.962 10.7425 110.198 10.0953C111.453 9.42848 112.875 9.09508 114.463 9.09508C116.052 9.09508 117.464 9.42848 118.699 10.0953C119.935 10.7425 120.906 11.6348 121.612 12.7723C122.337 13.9098 122.7 15.2042 122.7 16.6555C122.7 18.1068 122.347 19.411 121.641 20.5681C120.935 21.7252 119.964 22.6372 118.729 23.304C117.493 23.9512 116.081 24.2748 114.493 24.2748ZM114.463 19.2149C114.953 19.2149 115.375 19.1168 115.728 18.9207C116.101 18.705 116.385 18.4108 116.581 18.0382C116.777 17.6459 116.875 17.1948 116.875 16.6849C116.875 16.175 116.768 15.7337 116.552 15.3611C116.356 14.9689 116.081 14.6747 115.728 14.4786C115.375 14.2628 114.953 14.155 114.463 14.155C113.992 14.155 113.571 14.2628 113.198 14.4786C112.845 14.6943 112.561 14.9983 112.345 15.3905C112.149 15.7632 112.051 16.2044 112.051 16.7143C112.051 17.2046 112.149 17.6459 112.345 18.0382C112.561 18.4108 112.845 18.705 113.198 18.9207C113.571 19.1168 113.992 19.2149 114.463 19.2149Z" fill="#29AF78"/>
<path d="M95.9589 24.2159C94.5272 24.2159 93.272 23.8923 92.1934 23.2451C91.1343 22.5979 90.3008 21.7154 89.6928 20.5975C89.1045 19.46 88.8103 18.1558 88.8103 16.6849C88.8103 15.214 89.1045 13.9098 89.6928 12.7723C90.3008 11.6348 91.1343 10.7523 92.1934 10.1247C93.272 9.47751 94.5272 9.15391 95.9589 9.15391C96.8218 9.15391 97.6357 9.301 98.4006 9.59518C99.1654 9.86975 99.8126 10.262 100.342 10.7719C100.891 11.2818 101.235 11.8702 101.372 12.537V20.5387C101.235 21.2055 100.891 21.8233 100.342 22.392C99.8126 22.9412 99.1654 23.3824 98.4006 23.7158C97.6357 24.0492 96.8218 24.2159 95.9589 24.2159ZM97.0179 19.156C97.5082 19.156 97.9299 19.058 98.2829 18.8619C98.6359 18.6461 98.9105 18.3519 99.1066 17.9793C99.3223 17.6067 99.4302 17.1752 99.4302 16.6849C99.4302 16.1946 99.3321 15.773 99.136 15.4199C98.9399 15.0473 98.6555 14.7531 98.2829 14.5374C97.9299 14.3217 97.518 14.2138 97.0473 14.2138C96.5767 14.2138 96.155 14.3217 95.7824 14.5374C95.4294 14.7531 95.145 15.0473 94.9292 15.4199C94.7135 15.7926 94.6056 16.2142 94.6056 16.6849C94.6056 17.1556 94.7037 17.5773 94.8998 17.9499C95.1156 18.3225 95.4097 18.6167 95.7824 18.8324C96.155 19.0482 96.5668 19.156 97.0179 19.156ZM104.873 23.9218H99.2537V20.0386L100.048 16.5084L99.1066 13.0077V2.38777H104.873V23.9218Z" fill="#29AF78"/>
<path d="M80.1452 24.2748C78.5567 24.2748 77.1348 23.9512 75.8796 23.304C74.6441 22.6372 73.6635 21.7252 72.9378 20.5681C72.2318 19.411 71.8788 18.1068 71.8788 16.6555C71.8788 15.2042 72.2318 13.9098 72.9378 12.7723C73.6439 11.6348 74.6147 10.7425 75.8502 10.0953C77.1054 9.42848 78.5273 9.09508 80.1158 9.09508C81.7044 9.09508 83.1165 9.42848 84.352 10.0953C85.5876 10.7425 86.5584 11.6348 87.2644 12.7723C87.99 13.9098 88.3529 15.2042 88.3529 16.6555C88.3529 18.1068 87.9999 19.411 87.2938 20.5681C86.5878 21.7252 85.617 22.6372 84.3814 23.304C83.1459 23.9512 81.7338 24.2748 80.1452 24.2748ZM80.1158 19.2149C80.6061 19.2149 81.0278 19.1168 81.3808 18.9207C81.7534 18.705 82.0378 18.4108 82.2339 18.0382C82.43 17.6459 82.5281 17.1948 82.5281 16.6849C82.5281 16.175 82.4202 15.7337 82.2045 15.3611C82.0084 14.9689 81.7338 14.6747 81.3808 14.4786C81.0278 14.2628 80.6061 14.155 80.1158 14.155C79.6451 14.155 79.2235 14.2628 78.8509 14.4786C78.4978 14.6943 78.2135 14.9983 77.9977 15.3905C77.8016 15.7632 77.7035 16.2044 77.7035 16.7143C77.7035 17.2046 77.8016 17.6459 77.9977 18.0382C78.2135 18.4108 78.4978 18.705 78.8509 18.9207C79.2235 19.1168 79.6451 19.2149 80.1158 19.2149Z" fill="#29AF78"/>
<path d="M62.4521 23.9218V2.97614H68.3357V23.9218H62.4521ZM56.186 7.9772V2.97614H74.6311V7.9772H56.186Z" fill="#29AF78"/>
<defs>
<linearGradient id="paint0_linear_107_72" x1="25.6201" y1="31.4891" x2="49.8818" y2="3.0771" gradientUnits="userSpaceOnUse">
<stop stop-color="#028F37"/>
<stop offset="0.41" stop-color="#019291"/>
<stop offset="1" stop-color="#259CB0"/>
</linearGradient>
<linearGradient id="paint1_linear_107_72" x1="-3.54041" y1="0.163875" x2="17.2426" y2="20.1478" gradientUnits="userSpaceOnUse">
<stop stop-color="#BD1233"/>
<stop offset="0.41" stop-color="#E2222E"/>
<stop offset="1" stop-color="#D96B2F"/>
</linearGradient>
<linearGradient id="paint2_linear_107_72" x1="25.7536" y1="39.4347" x2="46.6257" y2="16.1643" gradientUnits="userSpaceOnUse">
<stop stop-color="#028F37"/>
<stop offset="0.41" stop-color="#019291"/>
<stop offset="1" stop-color="#259CB0"/>
</linearGradient>
<linearGradient id="paint3_linear_107_72" x1="36.0744" y1="0.779894" x2="39.5147" y2="7.84952" gradientUnits="userSpaceOnUse">
<stop stop-color="#028F37"/>
<stop offset="0.41" stop-color="#019291"/>
<stop offset="1" stop-color="#259CB0"/>
</linearGradient>
<linearGradient id="paint4_linear_107_72" x1="13.0406" y1="0.779894" x2="16.4819" y2="7.84952" gradientUnits="userSpaceOnUse">
<stop stop-color="#E3494B"/>
<stop offset="0.41" stop-color="#E3494B"/>
<stop offset="1" stop-color="#D96B2F"/>
</linearGradient>
<linearGradient id="paint5_linear_107_72" x1="26.4274" y1="39.4347" x2="5.55532" y2="16.1643" gradientUnits="userSpaceOnUse">
<stop stop-color="#028F37"/>
<stop offset="0.41" stop-color="#019291"/>
<stop offset="1" stop-color="#005FAB"/>
</linearGradient>
<clipPath id="clip0_107_72">
<rect width="52.1821" height="42" fill="white"/>
</clipPath>
</defs>
</svg>
