<svg width="186" height="37" viewBox="0 0 186 37" fill="none" xmlns="http://www.w3.org/2000/svg">
<path d="M58.5936 27.9298C57.4039 27.2598 56.6597 25.9199 57.4039 24.3573L68.087 3.48554C69.0919 1.5119 71.7699 1.43947 72.7006 3.48554L83.2026 24.3573C84.7272 27.2544 80.2258 29.5666 78.8859 26.6641L77.2563 23.3904H63.5041L61.9053 26.6641C61.3096 27.9298 59.9335 28.1905 58.5936 27.9298ZM74.5928 18.478L70.3884 9.28879L65.8128 18.478H74.5928Z" fill="#5D5D5D"/>
<path d="M86.6069 4.78737C86.6069 3.44746 86.9057 2.14558 88.8395 2.14558C90.1794 2.14558 90.4691 2.48056 91.4813 3.44746L103.794 18.851V4.41437C103.794 3.18673 104.88 1.84863 106.148 1.84863C107.488 1.84863 108.79 3.18673 108.79 4.41437V25.3622C108.79 26.9918 107.785 27.631 106.818 27.9297C105.516 27.9297 104.884 27.631 103.803 26.626L91.4903 10.9998V25.3622C91.4903 26.9918 90.4872 27.9297 89.1473 27.9297C87.8074 27.9297 86.6124 26.999 86.6124 25.3622L86.6069 4.78737Z" fill="#5D5D5D"/>
<path d="M120.947 6.83364H114.428C111.191 6.83364 111.191 2.07153 114.428 2.07153H132.026C135.338 2.07153 135.338 6.83364 132.026 6.83364H125.857V25.6231C125.857 28.8588 120.947 28.9348 120.947 25.6231V6.83364Z" fill="#279CB1"/>
<path d="M155.581 4.6389C155.581 1.32716 160.455 1.06642 160.455 4.6389V18.1068C160.455 32.0219 138.021 32.0219 138.021 18.1068V4.6389C138.021 1.28914 142.895 1.14066 142.895 4.6389V18.1068C142.895 25.4364 155.581 25.8819 155.581 18.1068V4.6389Z" fill="#279CB1"/>
<path d="M164.063 5.76154C162.277 3.38049 166.295 0.367512 168.227 3.26823L174.746 12.9807L181.331 3.26823C183.303 0.552202 187.433 3.26823 185.496 5.76154L177.087 17.9275V25.6302C177.087 28.9039 172.176 28.8297 172.176 25.5921V17.9275L164.063 5.76154Z" fill="#279CB1"/>
<path d="M14.212 36.21C12.8237 36.2037 11.4425 36.0112 10.1053 35.6378C7.90829 35.0409 5.85767 33.998 4.08118 32.5741C3.84232 32.3659 3.69593 32.0714 3.6742 31.7553C3.65247 31.4391 3.75717 31.1273 3.96529 30.8884C4.17345 30.6501 4.46762 30.504 4.7833 30.4823C5.09898 30.4606 5.41039 30.565 5.64923 30.7725C5.98239 31.0586 13.6615 37.5101 22.9087 30.7852C23.0356 30.6929 23.1795 30.6265 23.3322 30.5899C23.4848 30.5532 23.6431 30.547 23.7982 30.5715C23.9532 30.5961 24.1019 30.6509 24.2357 30.733C24.3695 30.815 24.4859 30.9225 24.5781 31.0495C24.6703 31.1764 24.7367 31.3201 24.7733 31.4726C24.8099 31.6251 24.8161 31.7833 24.7916 31.9382C24.767 32.093 24.7122 32.2416 24.6302 32.3752C24.5482 32.5089 24.4407 32.6251 24.3138 32.7172C20.6326 35.4006 17.1344 36.2227 14.212 36.21Z" fill="#27B178"/>
<path d="M25.7461 24.3951L25.1522 23.6871C26.8253 21.3803 27.7198 18.7765 27.7198 15.242C27.7198 6.08904 20.9478 1.43921 14.0274 1.43921C7.44191 1.43921 0 6.08904 0 15.242C0 24.3951 7.47813 28.8964 14.0274 28.8964C17.0403 28.8964 19.3109 28.2627 21.2448 26.9246L22.5122 27.9295C25.0019 30.2725 28.2123 26.6258 25.7461 24.3951ZM14.1215 24.3588C11.8454 24.3591 9.65053 23.513 7.96356 21.985C6.2766 20.457 5.21811 18.3563 4.99387 16.0913C4.9643 15.8091 4.94919 15.5257 4.9486 15.242C4.9486 15.2312 4.9486 15.2239 4.9486 15.2131C4.9486 15.2022 4.9486 15.195 4.9486 15.1859C4.9486 14.869 4.9649 14.554 4.99568 14.2444C5.22744 11.6967 6.34645 9.7593 7.92717 8.43569C9.61394 6.8783 11.8257 6.01388 14.1215 6.01481C16.5539 6.01481 18.8866 6.98105 20.6065 8.70096C22.3264 10.4209 23.2926 12.7536 23.2926 15.1859C23.2926 17.6184 22.3265 19.9513 20.6066 21.6715C18.8867 23.3917 16.554 24.3584 14.1215 24.3588Z" fill="#5D5D5D"/>
<path d="M16.6492 18.3311C19.4822 18.3311 21.7789 16.0345 21.7789 13.2014C21.7789 10.3684 19.4822 8.07178 16.6492 8.07178C13.8162 8.07178 11.5195 10.3684 11.5195 13.2014C11.5195 16.0345 13.8162 18.3311 16.6492 18.3311Z" fill="#27B178"/>
<path d="M53.7975 25.7371V13.3357V4.49412C53.7975 3.15602 52.8922 2.18912 51.583 2.18912C50.2431 2.18912 49.1477 3.15602 49.1477 4.49412V12.8233H36.7463V4.03964H37.8907L34.5173 0L31.144 4.03964H32.0947V24.1907V25.6266C32.0947 26.9285 32.933 27.9334 34.6061 27.9334C35.908 27.9334 36.7463 26.9285 36.7463 25.6266V17.4785H49.1477V25.7461H48.1446L51.5179 29.7857L54.8912 25.7461L53.7975 25.7371Z" fill="#5D5D5D"/>
</svg>
